<?xml version="1.0" standalone="no"?>
<!DOCTYPE svg PUBLIC "-//W3C//DTD SVG 20010904//EN"
 "http://www.w3.org/TR/2001/REC-SVG-20010904/DTD/svg10.dtd">
<svg version="1.0" xmlns="http://www.w3.org/2000/svg"
 width="640.000000pt" height="640.000000pt" viewBox="0 0 640.000000 640.000000"
 preserveAspectRatio="xMidYMid meet">

<g transform="translate(0.000000,640.000000) scale(0.100000,-0.100000)"
fill="#000000" stroke="none">
<path d="M3050 6393 c-349 -25 -574 -67 -858 -162 -357 -119 -690 -299 -982
-532 -138 -110 -395 -366 -505 -504 -376 -472 -606 -1023 -681 -1630 -23 -187
-23 -549 0 -735 62 -509 236 -982 511 -1395 134 -201 241 -332 410 -500 314
-314 652 -539 1052 -700 249 -101 518 -173 784 -210 159 -22 522 -31 689 -16
763 67 1454 387 1996 928 155 154 273 299 399 488 141 212 208 338 317 600
103 247 103 248 102 375 0 95 -4 125 -23 173 -31 79 -87 146 -152 182 -48 27
-63 30 -139 30 -73 0 -93 -4 -141 -28 -111 -54 -213 -187 -254 -332 -67 -237
-248 -569 -435 -801 -83 -103 -275 -294 -370 -370 -203 -160 -473 -313 -705
-399 -136 -51 -332 -100 -500 -127 -187 -30 -528 -32 -710 -4 -155 23 -393 83
-520 131 -234 87 -502 239 -705 399 -95 76 -287 267 -370 370 -627 775 -735
1839 -277 2730 60 117 187 311 277 422 83 103 275 294 370 370 203 160 471
312 705 399 127 48 365 108 520 131 166 26 535 25 685 0 189 -32 210 -34 270
-26 269 38 404 313 259 527 -38 55 -91 97 -164 132 -120 56 -592 103 -855 84z"/>
<path d="M4726 5834 c-168 -26 -284 -63 -440 -141 -392 -196 -672 -563 -768
-1006 -31 -147 -31 -427 0 -574 54 -249 160 -466 324 -661 60 -71 190 -190
266 -244 l23 -15 -27 -74 c-61 -170 -235 -467 -376 -639 -15 -19 -28 -39 -28
-44 0 -20 245 38 405 96 253 93 458 212 625 365 l55 51 180 4 c191 6 301 23
442 72 429 147 774 495 916 926 52 158 62 230 62 450 0 162 -4 223 -19 290
-132 605 -608 1054 -1211 1145 -122 18 -309 18 -429 -1z"/>
<path d="M2071 4874 c-30 -8 -76 -26 -103 -41 -61 -33 -147 -125 -177 -187
-51 -109 -51 -113 -51 -821 0 -432 4 -682 11 -721 26 -143 122 -270 254 -335
66 -32 75 -34 175 -34 98 0 110 2 173 32 129 61 230 193 257 332 6 33 10 308
10 720 0 560 -3 676 -15 730 -57 239 -301 388 -534 325z"/>
<path d="M1460 2225 c0 -3 16 -50 36 -103 131 -353 409 -643 798 -832 404
-197 903 -255 1354 -159 482 104 884 358 1118 710 81 121 174 322 174 376 0
11 -290 13 -1740 13 -957 0 -1740 -2 -1740 -5z"/>
</g>
</svg>
